<?xml version="1.0" ?><!DOCTYPE svg  PUBLIC '-//W3C//DTD SVG 1.1//EN'  'http://www.w3.org/Graphics/SVG/1.1/DTD/svg11.dtd'><svg enable-background="new 0 0 256 256" height="256px" id="Layer_1" version="1.1" viewBox="0 0 256 256" width="256px" xml:space="preserve" xmlns="http://www.w3.org/2000/svg" xmlns:xlink="http://www.w3.org/1999/xlink"><rect fill="#942D29" height="64" width="64" y="97"/><path d="M64,97h192v64H64V97z M84.056,140.382c2.598,0,4.577-1.462,4.577-4.318c0-2.227-1.698-3.823-3.216-5.488  l-2.845-3.092c-0.934-1.012-1.586-1.991-1.586-3.082c0-1.743,1.158-2.575,2.8-2.575c1.844,0,2.89,1.484,3.171,3.295l0.022,0.158  l1.439-0.45l-0.034-0.18c-0.506-2.71-2.047-4.195-4.6-4.195c-2.575,0-4.453,1.608-4.453,4.172c0,1.451,0.911,2.665,2.046,3.869  l3.025,3.183c1.406,1.484,2.598,2.89,2.598,4.532c0,1.776-0.99,2.8-2.755,2.8c-2.294,0-3.216-2.002-3.452-4.037l-1.507,0.438  C79.693,138.076,81.222,140.382,84.056,140.382z M92.832,140.078v-9.401h5.96v9.401h1.709v-19.354h-1.709v8.76h-5.96v-8.76h-1.709  v19.354H92.832z M105.432,135.04h4.465l0.967,5.038h1.732l-3.824-19.354h-2.227c-1.811,8.986-2.013,10.38-3.823,19.354h1.72  L105.432,135.04z M107.647,122.501l2.036,11.403h-4.048L107.647,122.501z M116.524,140.078v-9.446h3.25l2.823,9.446h1.822  l-2.991-9.66c2.125-0.775,2.699-2.71,2.699-4.689c0-2.688-0.787-5.004-4.149-5.004h-5.162v19.354H116.524z M116.524,122.096h3.441  c2.001,0,2.452,1.653,2.452,3.576c0,1.811-0.405,3.587-2.452,3.587h-3.441V122.096z M133.589,140.078v-1.372h-5.039v-7.984h3.599  v-1.293h-3.599v-7.333h5.039v-1.372h-6.748v19.354H133.589z M144.312,140.382c3.846,0,4.937-2.665,4.937-5.915v-8.108  c0-3.272-1.181-5.904-4.937-5.904c-3.757,0-4.938,2.632-4.938,5.904v8.108C139.374,137.717,140.465,140.382,144.312,140.382z   M144.312,139.01c-2.52,0-3.228-1.867-3.228-4.161v-8.873c0-2.294,0.708-4.15,3.228-4.15c2.519,0,3.228,1.855,3.228,4.15v8.873  C147.539,137.143,146.83,139.01,144.312,139.01z M153.706,140.078v-15.002l6.14,15.002h1.282v-19.354h-1.45v15.328l-6.129-15.328  h-1.316v19.354H153.706z M172.897,140.382c1.552,0,2.991-0.844,3.509-2.193l0.506,1.89h0.753v-9.232h-4.082v1.293h2.373v3.272  c0,1.698-0.54,3.599-3.036,3.599c-2.688,0-3.34-1.799-3.34-3.599v-9.671c0-2.001,0.787-3.914,3.396-3.914  c2.834,0,2.98,2.553,2.98,5.072v0.146h1.709v-0.135c-0.022-3.441-0.787-6.455-4.667-6.455c-4.115,0-5.128,2.913-5.128,6.005v8.209  C167.87,136.468,168.129,140.382,172.897,140.382z M185.374,140.382c3.846,0,4.937-2.665,4.937-5.915v-8.108  c0-3.272-1.181-5.904-4.937-5.904c-3.757,0-4.938,2.632-4.938,5.904v8.108C180.437,137.717,181.527,140.382,185.374,140.382z   M185.374,139.01c-2.52,0-3.228-1.867-3.228-4.161v-8.873c0-2.294,0.708-4.15,3.228-4.15c2.519,0,3.228,1.855,3.228,4.15v8.873  C188.602,137.143,187.893,139.01,185.374,139.01z M197.929,140.382c3.846,0,4.937-2.665,4.937-5.915v-8.108  c0-3.272-1.181-5.904-4.937-5.904c-3.757,0-4.938,2.632-4.938,5.904v8.108C192.991,137.717,194.082,140.382,197.929,140.382z   M197.929,139.01c-2.52,0-3.228-1.867-3.228-4.161v-8.873c0-2.294,0.708-4.15,3.228-4.15c2.519,0,3.228,1.855,3.228,4.15v8.873  C201.156,137.143,200.447,139.01,197.929,139.01z M210.573,140.382c1.552,0,2.991-0.844,3.509-2.193l0.506,1.89h0.753v-9.232h-4.082  v1.293h2.373v3.272c0,1.698-0.54,3.599-3.036,3.599c-2.688,0-3.34-1.799-3.34-3.599v-9.671c0-2.001,0.787-3.914,3.396-3.914  c2.834,0,2.98,2.553,2.98,5.072v0.146h1.709v-0.135c-0.022-3.441-0.787-6.455-4.667-6.455c-4.115,0-5.128,2.913-5.128,6.005v8.209  C205.546,136.468,205.805,140.382,210.573,140.382z M225.535,140.078v-1.372h-5.409v-17.982h-1.71v19.354H225.535z M233.973,140.078  v-1.372h-5.038v-7.984h3.599v-1.293h-3.599v-7.333h5.038v-1.372h-6.748v19.354H233.973z M239.104,135.76v-2.159h2.159v-1.293h-2.159  v-2.159h-1.361v2.159h-2.159v1.293h2.159v2.159H239.104z" fill="#CB4838"/><path d="M33.193,126.307c1.003-1.008,1.092-2.402,1.092-3.19c0-3.142-1.878-8.035-5.503-8.035  c-1.135,0-2.357,0.569-3.058,1.444c-0.742,0.917-0.96,2.094-0.96,3.229c0,2.925,1.704,7.774,5.459,7.774  C31.313,127.531,32.492,127.004,33.193,126.307L33.193,126.307z M31.925,134.602c-0.349-0.042-0.567-0.042-1.002-0.042  c-0.393,0-2.753,0.086-4.587,0.7c-0.96,0.348-3.755,1.395-3.755,4.496s3.013,5.326,7.686,5.326c4.192,0,6.417-2.005,6.417-4.715  C36.685,138.141,35.245,136.963,31.925,134.602L31.925,134.602z M44.732,130.184h-4.726v-2.362h4.726v-4.726h2.363v4.726h4.726  v2.362h-4.726v4.727h-2.363V130.184z M35.027,115.214c1.003,0.83,3.101,2.576,3.101,5.894c0,3.231-1.836,4.761-3.669,6.201  c-0.568,0.567-1.224,1.181-1.224,2.141c0,0.96,0.656,1.483,1.135,1.877l1.573,1.223c1.922,1.614,3.667,3.101,3.667,6.113  c0,4.104-3.973,8.254-11.485,8.254c-6.331,0-9.388-3.015-9.388-6.246c0-1.573,0.786-3.798,3.363-5.326  c2.707-1.66,6.375-1.878,8.34-2.009c-0.612-0.786-1.311-1.617-1.311-2.969c0-0.742,0.218-1.18,0.437-1.704  c-0.481,0.043-0.96,0.088-1.398,0.088c-4.628,0-7.248-3.452-7.248-6.857c0-2.007,0.916-4.237,2.793-5.851  c2.49-2.052,5.458-2.401,7.816-2.401h8.995l-2.794,1.572H35.027L35.027,115.214z" fill="#FFFFFF" id="g_x2B_"/></svg>